<svg xmlns="http://www.w3.org/2000/svg" xmlns:xlink="http://www.w3.org/1999/xlink" version="1.1" width="256" height="256" viewBox="0 0 256 256" xml:space="preserve">

<defs>
</defs>
<g style="stroke: none; stroke-width: 0; stroke-dasharray: none; stroke-linecap: butt; stroke-linejoin: miter; stroke-miterlimit: 10; fill: none; fill-rule: nonzero; opacity: 1;" transform="translate(1.4065934065934016 1.4065934065934016) scale(2.81 2.81)" >
	<path d="M 6.286 75.013 c 0.027 2.411 0.901 4.213 2.337 5.261 c 0.184 0.134 0.385 0.246 0.587 0.355 l -0.004 0.012 l 0.118 0.057 c 0.041 0.021 0.083 0.04 0.124 0.06 l 17.797 8.561 l 0.738 -0.428 c -0.423 -0.898 -0.671 -1.965 -0.685 -3.205 l -0.231 -20.726 l -0.209 -18.781 c -0.039 -3.497 1.713 -7.447 4.406 -10.581 L 9.931 25.318 c -2.508 3.068 -4.124 6.833 -4.086 10.187 l 0.209 18.781 L 6.286 75.013 z" style="stroke: none; stroke-width: 1; stroke-dasharray: none; stroke-linecap: butt; stroke-linejoin: miter; stroke-miterlimit: 10; fill: rgb(25,137,205); fill-rule: nonzero; opacity: 1;" transform=" matrix(1 0 0 1 0 0) " stroke-linecap="round" />
	<path d="M 62.684 0.538 l -0.005 0.008 c -1.846 -0.86 -4.335 -0.735 -7.07 0.595 L 15.893 20.457 c -2.24 1.089 -4.295 2.823 -5.961 4.861 c 0.9 7.946 6.189 11.544 18.007 8.677 c 1.606 -1.869 6.871 -1.846 8.967 -2.865 l 39.717 -19.316 c 1.36 -0.662 2.659 -1.021 3.85 -1.115 l 0.11 -1.536 L 62.684 0.538 z" style="stroke: none; stroke-width: 1; stroke-dasharray: none; stroke-linecap: butt; stroke-linejoin: miter; stroke-miterlimit: 10; fill: rgb(27,148,222); fill-rule: nonzero; opacity: 1;" transform=" matrix(1 0 0 1 0 0) " stroke-linecap="round" />
	<path d="M 73.969 9.788 l -39.82 18.925 c -5.626 2.674 -10.187 9.402 -10.187 15.028 v 18.93 v 2.006 V 83.56 c 0 5.626 4.561 8.019 10.187 5.345 l 13.736 -6.528 l 26.084 -12.397 c 5.626 -2.674 10.187 -9.402 10.187 -15.028 v -39.82 C 84.155 9.507 79.595 7.114 73.969 9.788 z" style="stroke: none; stroke-width: 1; stroke-dasharray: none; stroke-linecap: butt; stroke-linejoin: miter; stroke-miterlimit: 10; fill: rgb(29,161,242); fill-rule: nonzero; opacity: 1;" transform=" matrix(1 0 0 1 0 0) " stroke-linecap="round" />
	<path d="M 47.188 67.661 C 61.165 61.018 68.81 45.804 68.81 35.763 c 0 -0.329 0 -0.656 -0.022 -0.972 c 1.487 -1.783 2.771 -3.724 3.791 -5.735 c -1.387 1.274 -2.858 2.376 -4.365 3.27 c 1.587 -1.704 2.774 -3.762 3.341 -5.791 c -1.492 1.594 -3.124 2.994 -4.825 4.138 c -2.878 -1.692 -7.692 0.448 -10.752 4.78 c -1.974 2.794 -2.811 5.958 -2.198 8.306 c -6.109 2.597 -11.802 2.417 -15.661 -0.497 c -2.017 4.431 -0.987 8.384 2.353 9.026 c -1.21 0.539 -2.392 0.775 -3.449 0.688 c 0 0.031 0 0.064 0 0.096 c 0.001 3.617 2.551 5.521 6.097 4.552 c -1.119 0.837 -2.293 1.439 -3.431 1.761 c 0.996 2.623 3.848 3.387 7.1 1.903 c -2.691 3.394 -6.015 6.122 -9.438 7.745 c -0.605 0.286 -1.208 0.536 -1.809 0.75 c 3.475 0.579 7.519 -0.161 11.648 -2.128" style="stroke: none; stroke-width: 1; stroke-dasharray: none; stroke-linecap: butt; stroke-linejoin: miter; stroke-miterlimit: 10; fill: rgb(255,255,255); fill-rule: nonzero; opacity: 1;" transform=" matrix(1 0 0 1 0 0) " stroke-linecap="round" />
</g>
</svg>